<?xml version="1.0" encoding="UTF-8"?>
<svg width="24px" height="24px" viewBox="0 0 24 24" version="1.1" xmlns="http://www.w3.org/2000/svg">
    <g stroke="none" stroke-width="1" fill="none" fill-rule="evenodd">
        <path d="M20,4 C21.1045695,4 22,4.8954305 22,6 L22,18 C22,19.1045695 21.1045695,20 20,20 L4,20 C2.8954305,20 2,19.1045695 2,18 L2,6 C2,4.8954305 2.8954305,4 4,4 L20,4 Z M20,6 L4,6 L4,18 L20,18 L20,6 Z M12,8 C13.6568542,8 15,9.34314575 15,11 C15,12.6568542 13.6568542,14 12,14 C10.3431458,14 9,12.6568542 9,11 C9,9.34314575 10.3431458,8 12,8 Z" fill="#333333" fill-rule="nonzero"/>
        <circle fill="#333333" cx="7.5" cy="9.5" r="1.5"/>
        <circle fill="#333333" cx="16.5" cy="9.5" r="1.5"/>
    </g>
</svg>